<svg width="17" height="20" viewBox="0 0 17 20" fill="none" xmlns="http://www.w3.org/2000/svg">
<path d="M16 8.33369H1M11.8333 1.66699V5.00029M5.16667 1.66699V5.00029M5 18.3337H12C13.4001 18.3337 14.1002 18.3337 14.635 18.0612C15.1054 17.8215 15.4878 17.439 15.7275 16.9686C16 16.4339 16 15.7338 16 14.3337V7.33369C16 5.93349 16 5.23349 15.7275 4.69869C15.4878 4.22829 15.1054 3.84579 14.635 3.60609C14.1002 3.33369 13.4001 3.33369 12 3.33369H5C3.59987 3.33369 2.8998 3.33369 2.36502 3.60609C1.89462 3.84579 1.51217 4.22829 1.27248 4.69869C1 5.23349 1 5.93349 1 7.33369V14.3337C1 15.7338 1 16.4339 1.27248 16.9686C1.51217 17.439 1.89462 17.8215 2.36502 18.0612C2.8998 18.3337 3.59987 18.3337 5 18.3337Z" stroke="#AAA2C4" stroke-width="2" stroke-linecap="round" stroke-linejoin="round"/>
</svg>
