<svg width="17" height="19" viewBox="0 0 17 19" fill="none" xmlns="http://www.w3.org/2000/svg">
<path d="M16 7.6667H1M11.8333 1V4.3333M5.16667 1V4.3333M5 17.6667H12C13.4001 17.6667 14.1002 17.6667 14.635 17.3942C15.1054 17.1545 15.4878 16.772 15.7275 16.3016C16 15.7669 16 15.0668 16 13.6667V6.6667C16 5.2665 16 4.5665 15.7275 4.0317C15.4878 3.5613 15.1054 3.1788 14.635 2.9391C14.1002 2.6667 13.4001 2.6667 12 2.6667H5C3.59987 2.6667 2.8998 2.6667 2.36502 2.9391C1.89462 3.1788 1.51217 3.5613 1.27248 4.0317C1 4.5665 1 5.2665 1 6.6667V13.6667C1 15.0668 1 15.7669 1.27248 16.3016C1.51217 16.772 1.89462 17.1545 2.36502 17.3942C2.8998 17.6667 3.59987 17.6667 5 17.6667Z" stroke="black" stroke-opacity="0.7" stroke-width="2" stroke-linecap="round" stroke-linejoin="round"/>
</svg>
