<svg width="34" height="30" viewBox="0 0 34 30" fill="none" xmlns="http://www.w3.org/2000/svg">
<path d="M31.5714 0H2.42857C1.78447 0 1.16676 0.2508 0.711311 0.697228C0.255866 1.14366 0 1.74914 0 2.38049V22.6146C0 23.246 0.255866 23.8514 0.711311 24.2979C1.16676 24.7443 1.78447 24.9951 2.42857 24.9951H19.4285V28.5658C19.4291 28.7811 19.4893 28.9923 19.6026 29.1767C19.716 29.3612 19.8782 29.512 20.0721 29.6132C20.262 29.7088 20.4742 29.7536 20.6874 29.7432C20.9006 29.7327 21.1072 29.6674 21.2864 29.5537L24.2857 27.6136L27.2607 29.5537C27.4433 29.6716 27.655 29.739 27.8735 29.7487C28.0919 29.7584 28.309 29.7102 28.5017 29.609C28.6945 29.5078 28.8558 29.3575 28.9687 29.1738C29.0815 28.9902 29.1417 28.7802 29.1428 28.5658V24.9951H31.5714C32.2155 24.9951 32.8332 24.7443 33.2886 24.2979C33.7441 23.8514 33.9999 23.246 33.9999 22.6146V2.38049C33.9999 1.74914 33.7441 1.14366 33.2886 0.697228C32.8332 0.2508 32.2155 0 31.5714 0ZM25.0021 20.1627C24.2353 20.3138 23.4392 20.2189 22.7317 19.8922C22.0241 19.5655 21.4426 19.0242 21.0733 18.3484C20.7039 17.6726 20.5662 16.8983 20.6805 16.1398C20.7949 15.3814 21.1553 14.6792 21.7084 14.1371C22.2614 13.595 22.9778 13.2418 23.7515 13.1297C24.5253 13.0175 25.3153 13.1525 26.0047 13.5146C26.6941 13.8767 27.2463 14.4466 27.5797 15.1402C27.913 15.8337 28.0098 16.614 27.8557 17.3656C27.7142 18.0556 27.3678 18.6892 26.8601 19.1869C26.3524 19.6845 25.706 20.024 25.0021 20.1627ZM26.7142 26.3401L24.9535 25.1498C24.7553 25.0218 24.5231 24.9536 24.2857 24.9536C24.0483 24.9536 23.8161 25.0218 23.6178 25.1498L21.8571 26.3401V22.1147C22.6231 22.4424 23.4499 22.6115 24.2857 22.6115C25.1214 22.6115 25.9482 22.4424 26.7142 22.1147V26.3401ZM31.5714 22.6146H29.1428V20.2341C29.6759 19.5477 30.0481 18.7545 30.2328 17.911C30.4175 17.0676 30.4102 16.1945 30.2114 15.3541C29.8855 13.9227 29.0319 12.6596 27.8143 11.8072C26.5967 10.9548 25.1009 10.5731 23.6138 10.7354C22.1268 10.8977 20.7532 11.5925 19.7567 12.6865C18.7602 13.7806 18.2109 15.1968 18.2142 16.6634C18.208 17.952 18.6347 19.2069 19.4285 20.2341V22.6146H2.42857V2.38049H31.5714V22.6146Z" fill="#AAA2C4"/>
<path d="M6.28961 8.49995H27.7096C28.0252 8.49995 28.3278 8.36562 28.551 8.12651C28.7742 7.8874 28.8996 7.5631 28.8996 7.22495C28.8996 6.8868 28.7742 6.5625 28.551 6.32339C28.3278 6.08428 28.0252 5.94995 27.7096 5.94995H6.28961C5.974 5.94995 5.67132 6.08428 5.44815 6.32339C5.22498 6.5625 5.09961 6.8868 5.09961 7.22495C5.09961 7.5631 5.22498 7.8874 5.44815 8.12651C5.67132 8.36562 5.974 8.49995 6.28961 8.49995Z" fill="#AAA2C4"/>
<path d="M6.28961 12.75H15.8096C16.1252 12.75 16.4279 12.6604 16.651 12.501C16.8742 12.3416 16.9996 12.1254 16.9996 11.9C16.9996 11.6746 16.8742 11.4584 16.651 11.2989C16.4279 11.1395 16.1252 11.05 15.8096 11.05H6.28961C5.974 11.05 5.67132 11.1395 5.44815 11.2989C5.22498 11.4584 5.09961 11.6746 5.09961 11.9C5.09961 12.1254 5.22498 12.3416 5.44815 12.501C5.67132 12.6604 5.974 12.75 6.28961 12.75Z" fill="#AAA2C4"/>
<path d="M6.28961 17.8499H15.8096C16.1252 17.8499 16.4279 17.7156 16.651 17.4765C16.8742 17.2374 16.9996 16.9131 16.9996 16.5749C16.9996 16.2368 16.8742 15.9125 16.651 15.6734C16.4279 15.4343 16.1252 15.2999 15.8096 15.2999H6.28961C5.974 15.2999 5.67132 15.4343 5.44815 15.6734C5.22498 15.9125 5.09961 16.2368 5.09961 16.5749C5.09961 16.9131 5.22498 17.2374 5.44815 17.4765C5.67132 17.7156 5.974 17.8499 6.28961 17.8499Z" fill="#AAA2C4"/>
</svg>
