<svg width="20" height="18" viewBox="0 0 20 18" fill="none" xmlns="http://www.w3.org/2000/svg">
<path d="M18.6327 0.499878H2.22441C1.86177 0.499878 1.51397 0.641086 1.25754 0.892438C1.00112 1.14379 0.857056 1.4847 0.857056 1.84016V13.2326C0.857056 13.588 1.00112 13.9289 1.25754 14.1803C1.51397 14.4316 1.86177 14.5729 2.22441 14.5729H11.7959V16.5833C11.7962 16.7045 11.8301 16.8234 11.8939 16.9272C11.9577 17.0311 12.0491 17.116 12.1582 17.173C12.2651 17.2268 12.3846 17.252 12.5047 17.2462C12.6247 17.2403 12.741 17.2035 12.8419 17.1395L14.5306 16.0472L16.2056 17.1395C16.3084 17.2059 16.4276 17.2438 16.5506 17.2493C16.6736 17.2548 16.7958 17.2276 16.9044 17.1706C17.0129 17.1136 17.1037 17.029 17.1673 16.9256C17.2308 16.8222 17.2647 16.704 17.2653 16.5833V14.5729H18.6327C18.9953 14.5729 19.3431 14.4316 19.5995 14.1803C19.856 13.9289 20 13.588 20 13.2326V1.84016C20 1.4847 19.856 1.14379 19.5995 0.892438C19.3431 0.641086 18.9953 0.499878 18.6327 0.499878ZM14.934 11.8521C14.5022 11.9371 14.054 11.8837 13.6557 11.6998C13.2573 11.5158 12.9299 11.211 12.7219 10.8306C12.5139 10.4501 12.4364 10.0141 12.5008 9.58708C12.5652 9.16007 12.7681 8.76471 13.0795 8.45949C13.3909 8.15427 13.7942 7.95538 14.2299 7.89226C14.6655 7.82914 15.1103 7.90513 15.4985 8.10899C15.8866 8.31285 16.1975 8.63376 16.3852 9.02424C16.5729 9.41473 16.6274 9.85406 16.5406 10.2772C16.4609 10.6657 16.2659 11.0225 15.9801 11.3027C15.6942 11.5829 15.3303 11.774 14.934 11.8521ZM15.898 15.3301L14.9066 14.66C14.795 14.5879 14.6643 14.5495 14.5306 14.5495C14.3969 14.5495 14.2662 14.5879 14.1546 14.66L13.1632 15.3301V12.9511C13.5945 13.1356 14.06 13.2308 14.5306 13.2308C15.0012 13.2308 15.4667 13.1356 15.898 12.9511V15.3301ZM18.6327 13.2326H17.2653V11.8923C17.5655 11.5058 17.775 11.0592 17.879 10.5843C17.983 10.1094 17.9789 9.61788 17.8669 9.14471C17.6835 8.33876 17.2029 7.6276 16.5173 7.14767C15.8318 6.66774 14.9896 6.45285 14.1523 6.54422C13.3151 6.63559 12.5417 7.0268 11.9807 7.64277C11.4196 8.25875 11.1103 9.05611 11.1122 9.88186C11.1087 10.6074 11.349 11.3139 11.7959 11.8923V13.2326H2.22441V1.84016H18.6327V13.2326Z" fill="black" fill-opacity="0.7"/>
<path d="M4.39846 5.28562H16.4585C16.6362 5.28562 16.8066 5.20999 16.9323 5.07536C17.0579 4.94074 17.1285 4.75815 17.1285 4.56776C17.1285 4.37737 17.0579 4.19478 16.9323 4.06016C16.8066 3.92553 16.6362 3.8499 16.4585 3.8499H4.39846C4.22076 3.8499 4.05034 3.92553 3.92469 4.06016C3.79904 4.19478 3.72845 4.37737 3.72845 4.56776C3.72845 4.75815 3.79904 4.94074 3.92469 5.07536C4.05034 5.20999 4.22076 5.28562 4.39846 5.28562Z" fill="black" fill-opacity="0.7"/>
<path d="M4.39846 7.67846H9.75849C9.93618 7.67846 10.1066 7.62804 10.2323 7.53829C10.3579 7.44854 10.4285 7.32681 10.4285 7.19989C10.4285 7.07296 10.3579 6.95123 10.2323 6.86148C10.1066 6.77173 9.93618 6.72131 9.75849 6.72131H4.39846C4.22076 6.72131 4.05034 6.77173 3.92469 6.86148C3.79904 6.95123 3.72845 7.07296 3.72845 7.19989C3.72845 7.32681 3.79904 7.44854 3.92469 7.53829C4.05034 7.62804 4.22076 7.67846 4.39846 7.67846Z" fill="black" fill-opacity="0.7"/>
<path d="M4.39846 10.5499H9.75849C9.93618 10.5499 10.1066 10.4743 10.2323 10.3397C10.3579 10.2051 10.4285 10.0225 10.4285 9.83207C10.4285 9.64168 10.3579 9.45909 10.2323 9.32447C10.1066 9.18984 9.93618 9.11421 9.75849 9.11421H4.39846C4.22076 9.11421 4.05034 9.18984 3.92469 9.32447C3.79904 9.45909 3.72845 9.64168 3.72845 9.83207C3.72845 10.0225 3.79904 10.2051 3.92469 10.3397C4.05034 10.4743 4.22076 10.5499 4.39846 10.5499Z" fill="black" fill-opacity="0.7"/>
</svg>
