<svg width="42" height="42" viewBox="0 0 42 42" fill="none" xmlns="http://www.w3.org/2000/svg">
<path d="M4.69455 0.805447C3.62059 -0.268482 1.87941 -0.268482 0.805448 0.805447C-0.268482 1.8794 -0.268482 3.62059 0.805448 4.69455L16.6859 20.575L0.805613 36.4554C-0.268317 37.5293 -0.268317 39.2706 0.805613 40.3444C1.87957 41.4183 3.62076 41.4183 4.69469 40.3444L20.575 24.464L36.4554 40.3444C37.5293 41.4183 39.2706 41.4183 40.3445 40.3444C41.4183 39.2706 41.4183 37.5293 40.3445 36.4554L24.464 20.575L40.3447 4.69455C41.4186 3.62059 41.4186 1.8794 40.3447 0.805447C39.2708 -0.268482 37.5295 -0.268482 36.4557 0.805447L20.575 16.6859L4.69455 0.805447Z" fill="white"/>
</svg>
