<svg width="52" height="50" viewBox="0 0 52 50" fill="none" xmlns="http://www.w3.org/2000/svg">
<path d="M33.7432 8.6553L25.6348 5.76691C25.0566 5.59877 24.3943 5.71974 23.9472 6.09623L1.59001 24.9203C1.01511 25.4043 0.934354 26.3456 1.4184 26.9205L11.3683 38.7379C11.9061 39.3767 12.7936 39.3935 13.3685 38.9095L35.7257 20.0854C36.1728 19.709 36.4048 19.077 36.3376 18.4786L34.8726 9.99673C34.8054 9.39834 34.3751 8.88731 33.7432 8.6553ZM31.5139 13.9163C30.8112 14.5079 29.7523 14.417 29.1607 13.7144C28.5691 13.0117 28.6599 11.9528 29.3626 11.3612C30.0652 10.7696 31.1242 10.8604 31.7158 11.5631C32.3074 12.2657 32.2165 13.3247 31.5139 13.9163Z" fill="#EC6E62"/>
<path d="M38.6559 34.9749C38.4643 35.1363 38.2088 35.3514 37.9634 35.4489C37.0254 36.0203 35.9362 36.2824 34.8873 36.0739C33.1964 35.7511 31.5425 34.3054 30.7526 32.4597C30.1779 30.8695 30.1579 29.0307 30.8875 27.4339C31.4053 26.2338 32.2761 25.064 33.6175 23.9345C34.1286 23.5042 34.6396 23.074 35.1506 22.6437C35.7255 22.1597 36.2903 21.7933 36.7476 21.2991C38.0352 20.1058 39.0976 18.7747 39.9987 17.2518C40.3585 16.5123 40.846 15.6652 40.6914 14.7037C40.557 13.5069 39.599 12.2394 38.2914 11.5939C37.1551 11.0223 35.8609 10.9112 34.5262 11.2708C33.3092 11.6405 32.1796 12.3733 31.1677 13.1162C30.8483 13.3851 30.26 13.3346 30.055 12.9615C29.786 12.6421 29.8365 12.0538 30.2097 11.8487C31.3494 10.9983 32.6068 10.158 34.0692 9.69078C35.7669 9.24381 37.5318 9.39522 39.0109 10.1148C40.769 11.036 42.1035 12.7506 42.3051 14.5458C42.4831 15.9242 41.9015 17.178 41.4139 18.0252C40.4389 19.7194 39.3025 21.222 37.8333 22.459C37.2584 22.9431 36.6835 23.4271 36.1086 23.9112C35.5976 24.3414 35.0967 24.654 34.6394 25.1482C33.4896 26.1163 32.7567 27.0609 32.3129 28.0895C31.795 29.2896 31.7916 30.7117 32.2251 31.8749C32.7663 33.1658 33.9159 34.2719 35.0824 34.4905C35.896 34.6789 36.5784 34.3226 37.0155 34.0638C38.3905 33.2335 39.1302 31.5191 38.9925 29.6701C38.969 29.2532 39.2447 28.8028 39.7255 28.7255C40.2062 28.6482 40.5928 28.9777 40.6701 29.4584C40.8951 31.6705 40.1251 33.7379 38.6559 34.9749Z" fill="#656766"/>
<path d="M9.41938 27.607L10.4413 28.8207L12.4853 27.0996L13.077 27.8022L11.0329 29.5233L12.5926 31.3758L11.826 32.0212L8.00745 27.4858L11.0097 24.958L11.6013 25.6607L9.36559 27.5431L9.41938 27.607Z" fill="white"/>
<path d="M16.8358 22.6725C17.4812 23.4391 17.5383 24.1551 17.0608 24.8846L19.6729 25.5235L18.7147 26.3303L16.338 25.7115L15.3159 26.5721L16.6067 28.1051L15.8402 28.7505L12.0216 24.2152L13.6824 22.8169C14.3851 22.2252 15.0037 21.9227 15.4205 21.8992C15.955 21.8858 16.4055 22.1615 16.8358 22.6725ZM16.3516 24.1719C16.3717 23.9365 16.3381 23.6373 16.0692 23.3179C15.8003 22.9986 15.5751 22.8607 15.2759 22.8943C14.9767 22.9279 14.6674 23.0791 14.2841 23.4018L13.326 24.2086L14.6705 25.8055L15.6287 24.9988C16.0658 24.74 16.3314 24.4072 16.3516 24.1719Z" fill="white"/>
<path d="M19.8786 17.5999L20.4702 18.3026L18.0428 20.3463L19.0647 21.56L21.2366 19.7314L21.8282 20.434L19.6563 22.2627L20.6782 23.4763L23.1694 21.3788L23.761 22.0814L20.5033 24.8244L16.6847 20.2891L19.8786 17.5999Z" fill="white"/>
<path d="M24.1584 13.9964L24.75 14.6991L22.3226 16.7428L23.3445 17.9565L25.5163 16.1279L26.108 16.8305L23.9361 18.6591L24.958 19.8728L27.4492 17.7753L28.0408 18.4779L24.7831 21.2209L20.9645 16.6855L24.1584 13.9964Z" fill="white"/>
</svg>
