<svg width="18" height="14" viewBox="0 0 18 14" fill="none" xmlns="http://www.w3.org/2000/svg">
<path d="M9.23864 3.63197L14.9998 8.37781V13.4999C14.9998 13.6326 14.9471 13.7598 14.8533 13.8535C14.7596 13.9473 14.6324 14 14.4998 14L10.9982 13.9909C10.866 13.9903 10.7395 13.9373 10.6463 13.8436C10.5531 13.7499 10.5007 13.6231 10.5007 13.4909V10.4996C10.5007 10.367 10.4481 10.2398 10.3543 10.146C10.2605 10.0522 10.1334 9.99955 10.0008 9.99955H8.00093C7.86833 9.99955 7.74116 10.0522 7.6474 10.146C7.55364 10.2398 7.50096 10.367 7.50096 10.4996V13.4887C7.50117 13.5545 7.48839 13.6197 7.46336 13.6805C7.43832 13.7414 7.40153 13.7967 7.35508 13.8433C7.30864 13.8899 7.25345 13.9269 7.19269 13.9521C7.13193 13.9773 7.06679 13.9903 7.001 13.9903L3.50065 14C3.36805 14 3.24088 13.9473 3.14712 13.8535C3.05336 13.7598 3.00069 13.6326 3.00069 13.4999V8.37437L8.76056 3.63197C8.82827 3.57738 8.91263 3.54761 8.9996 3.54761C9.08657 3.54761 9.17093 3.57738 9.23864 3.63197ZM0.138407 6.85764L2.75071 4.70396V0.375042C2.75071 0.275575 2.79021 0.180181 2.86053 0.109847C2.93085 0.0395133 3.02623 0 3.12568 0H4.87554C4.97499 0 5.07037 0.0395133 5.14069 0.109847C5.21101 0.180181 5.25051 0.275575 5.25051 0.375042V2.64436L8.04811 0.342226C8.31659 0.121257 8.65347 0.00044172 9.00116 0.00044172C9.34885 0.00044172 9.68574 0.121257 9.95421 0.342226L17.8639 6.85764C17.9019 6.88903 17.9333 6.92759 17.9564 6.97113C17.9794 7.01467 17.9937 7.06232 17.9983 7.11137C18.003 7.16042 17.9979 7.20991 17.9834 7.257C17.9689 7.30409 17.9453 7.34787 17.9139 7.38582L17.1171 8.35468C17.0858 8.39277 17.0473 8.42431 17.0037 8.44749C16.9602 8.47067 16.9125 8.48504 16.8635 8.48977C16.8144 8.4945 16.7649 8.48951 16.7177 8.47507C16.6706 8.46063 16.6267 8.43703 16.5887 8.40563L9.23864 2.35057C9.17093 2.29598 9.08657 2.26621 8.9996 2.26621C8.91263 2.26621 8.82827 2.29598 8.76056 2.35057L1.41018 8.40563C1.37223 8.43704 1.32846 8.46066 1.28138 8.47515C1.2343 8.48964 1.18482 8.4947 1.13578 8.49006C1.08674 8.48542 1.03909 8.47115 0.995567 8.44808C0.952039 8.42502 0.913483 8.3936 0.8821 8.35562L0.0852859 7.38676C0.0539141 7.34858 0.0303938 7.30458 0.0160792 7.25728C0.00176471 7.20999 -0.00306198 7.16033 0.00187441 7.11116C0.0068108 7.06199 0.0214147 7.01428 0.0448456 6.97077C0.0682764 6.92726 0.100073 6.88882 0.138407 6.85764Z" fill="#FEFEFE"/>
</svg>
