<svg width="18" height="18" viewBox="0 0 18 18" fill="none" xmlns="http://www.w3.org/2000/svg">
<path d="M8.79999 4.22266C6.31612 4.22266 4.25806 6.24524 4.25806 8.76459C4.25806 11.2839 6.28064 13.3065 8.79999 13.3065C11.3193 13.3065 13.3419 11.2485 13.3419 8.76459C13.3419 6.28072 11.2839 4.22266 8.79999 4.22266ZM8.79999 11.6743C7.20322 11.6743 5.89031 10.3614 5.89031 8.76459C5.89031 7.16782 7.20322 5.85491 8.79999 5.85491C10.3968 5.85491 11.7097 7.16782 11.7097 8.76459C11.7097 10.3614 10.3968 11.6743 8.79999 11.6743Z" fill="#FFFEFE"/>
<path d="M13.5194 5.14498C14.0877 5.14498 14.5484 4.68427 14.5484 4.11595C14.5484 3.54763 14.0877 3.08691 13.5194 3.08691C12.9511 3.08691 12.4904 3.54763 12.4904 4.11595C12.4904 4.68427 12.9511 5.14498 13.5194 5.14498Z" fill="#FFFEFE"/>
<path d="M16.1806 1.45484C15.2581 0.496774 13.9452 0 12.4548 0H5.14516C2.05806 0 0 2.05806 0 5.14516V12.4194C0 13.9452 0.496774 15.2581 1.49032 16.2161C2.44839 17.1387 3.72581 17.6 5.18065 17.6H12.4194C13.9452 17.6 15.2226 17.1032 16.1452 16.2161C17.1032 15.2935 17.6 13.9806 17.6 12.4548V5.14516C17.6 3.65484 17.1032 2.37742 16.1806 1.45484ZM16.0387 12.4548C16.0387 13.5548 15.6484 14.4419 15.0097 15.0452C14.371 15.6484 13.4839 15.9677 12.4194 15.9677H5.18065C4.11613 15.9677 3.22903 15.6484 2.59032 15.0452C1.95161 14.4065 1.63226 13.5194 1.63226 12.4194V5.14516C1.63226 4.08065 1.95161 3.19355 2.59032 2.55484C3.19355 1.95161 4.11613 1.63226 5.18065 1.63226H12.4903C13.5548 1.63226 14.4419 1.95161 15.0806 2.59032C15.6839 3.22903 16.0387 4.11613 16.0387 5.14516V12.4548Z" fill="#FFFEFE"/>
</svg>
