<svg width="36" height="34" viewBox="0 0 36 34" fill="none" xmlns="http://www.w3.org/2000/svg">
<path d="M21.5559 12.572H2.23048C1.80159 12.572 1.39027 12.7423 1.08699 13.0456C0.783709 13.3488 0.613313 13.7602 0.613281 14.189V26.9708C0.613297 27.3997 0.783685 27.811 1.08696 28.1143C1.39024 28.4176 1.80158 28.588 2.23048 28.588H8.21506C8.44431 28.588 8.66416 28.6791 8.82626 28.8412C8.98835 29.0033 9.07943 29.2231 9.07944 29.4524V32.4692C9.07944 32.6532 9.13271 32.8333 9.23283 32.9877C9.33295 33.142 9.47563 33.2641 9.64364 33.3392C9.81164 33.4142 9.99778 33.439 10.1796 33.4105C10.3613 33.3821 10.531 33.3016 10.668 33.1788L15.418 28.9216C15.6577 28.7068 15.9683 28.588 16.2902 28.5879H21.5559C21.9847 28.5879 22.3961 28.4175 22.6993 28.1142C23.0026 27.8109 23.173 27.3996 23.173 26.9707V14.189C23.173 13.7602 23.0026 13.3489 22.6993 13.0456C22.3961 12.7424 21.9848 12.572 21.5559 12.572ZM11.8931 23.276H5.53582C5.42895 23.2786 5.32264 23.2598 5.22314 23.2207C5.12364 23.1816 5.03297 23.123 4.95646 23.0483C4.87996 22.9736 4.81916 22.8844 4.77765 22.7859C4.73614 22.6874 4.71475 22.5815 4.71475 22.4746C4.71475 22.3677 4.73614 22.2619 4.77765 22.1634C4.81916 22.0649 4.87996 21.9757 4.95646 21.901C5.03297 21.8263 5.12364 21.7677 5.22314 21.7286C5.32264 21.6895 5.42895 21.6707 5.53582 21.6733H11.8931C12 21.6707 12.1063 21.6895 12.2058 21.7286C12.3053 21.7677 12.396 21.8263 12.4725 21.901C12.549 21.9757 12.6098 22.0649 12.6513 22.1634C12.6928 22.2619 12.7142 22.3677 12.7142 22.4746C12.7142 22.5815 12.6928 22.6874 12.6513 22.7859C12.6098 22.8844 12.549 22.9736 12.4725 23.0483C12.396 23.123 12.3053 23.1816 12.2058 23.2207C12.1063 23.2598 12 23.2786 11.8931 23.276ZM18.251 23.276H15.7716C15.6647 23.2786 15.5584 23.2598 15.4589 23.2207C15.3594 23.1816 15.2687 23.123 15.1922 23.0483C15.1157 22.9736 15.0549 22.8844 15.0134 22.7859C14.9719 22.6874 14.9505 22.5815 14.9505 22.4746C14.9505 22.3677 14.9719 22.2619 15.0134 22.1634C15.0549 22.0649 15.1157 21.9757 15.1922 21.901C15.2687 21.8263 15.3594 21.7677 15.4589 21.7286C15.5584 21.6895 15.6647 21.6707 15.7716 21.6733H18.251C18.4601 21.6784 18.659 21.7651 18.8051 21.9148C18.9512 22.0645 19.033 22.2654 19.033 22.4746C19.033 22.6839 18.9512 22.8848 18.8051 23.0345C18.659 23.1842 18.4601 23.2709 18.251 23.276ZM18.251 19.216H5.53582C5.42895 19.2186 5.32264 19.1998 5.22314 19.1607C5.12364 19.1216 5.03297 19.063 4.95646 18.9883C4.87996 18.9136 4.81916 18.8244 4.77765 18.7259C4.73614 18.6274 4.71475 18.5215 4.71475 18.4146C4.71475 18.3077 4.73614 18.2019 4.77765 18.1034C4.81916 18.0049 4.87996 17.9157 4.95646 17.841C5.03297 17.7663 5.12364 17.7077 5.22314 17.6686C5.32264 17.6295 5.42895 17.6107 5.53582 17.6133H18.251C18.4601 17.6184 18.659 17.7051 18.8051 17.8548C18.9512 18.0045 19.033 18.2054 19.033 18.4146C19.033 18.6238 18.9512 18.8248 18.8051 18.9745C18.659 19.1242 18.4601 19.2109 18.251 19.216Z" fill="#AAA2C4"/>
<path d="M33.7697 0.970764H14.4443C14.2319 0.970764 14.0216 1.01259 13.8254 1.09387C13.6292 1.17514 13.4509 1.29426 13.3008 1.44443C13.1506 1.59461 13.0315 1.77288 12.9502 1.96909C12.869 2.1653 12.8271 2.37559 12.8271 2.58796V10.9689H21.556C22.4097 10.9699 23.2282 11.3095 23.8319 11.9132C24.4355 12.5169 24.7752 13.3353 24.7762 14.1891V18.4403L28.2764 21.5773C28.4134 21.7001 28.5831 21.7806 28.7649 21.8091C28.9466 21.8376 29.1328 21.8128 29.3008 21.7378C29.4688 21.6628 29.6115 21.5407 29.7116 21.3863C29.8118 21.232 29.8651 21.0519 29.8651 20.8679V17.8511C29.8651 17.7376 29.8874 17.6252 29.9309 17.5203C29.9743 17.4154 30.0379 17.3201 30.1182 17.2399C30.1985 17.1596 30.2937 17.0959 30.3986 17.0525C30.5035 17.0091 30.6159 16.9867 30.7294 16.9867H33.7697C33.9821 16.9867 34.1924 16.9449 34.3886 16.8636C34.5848 16.7823 34.7631 16.6632 34.9132 16.513C35.0634 16.3628 35.1825 16.1845 35.2638 15.9883C35.345 15.7921 35.3869 15.5818 35.3869 15.3694V2.58796C35.3869 2.37559 35.345 2.1653 35.2638 1.96909C35.1825 1.77288 35.0634 1.59461 34.9132 1.44443C34.7631 1.29426 34.5848 1.17514 34.3886 1.09387C34.1924 1.01259 33.9821 0.970764 33.7697 0.970764ZM30.4647 11.6003H26.2431C26.1362 11.6029 26.0299 11.5841 25.9304 11.545C25.8309 11.5059 25.7403 11.4473 25.6637 11.3726C25.5872 11.298 25.5264 11.2088 25.4849 11.1102C25.4434 11.0117 25.422 10.9059 25.422 10.799C25.422 10.6921 25.4434 10.5863 25.4849 10.4877C25.5264 10.3892 25.5872 10.3 25.6637 10.2253C25.7403 10.1507 25.8309 10.0921 25.9304 10.053C26.0299 10.0139 26.1362 9.99506 26.2431 9.99767H30.4647C30.5715 9.99506 30.6779 10.0139 30.7774 10.053C30.8769 10.0921 30.9675 10.1507 31.044 10.2253C31.1205 10.3 31.1813 10.3892 31.2228 10.4877C31.2644 10.5863 31.2857 10.6921 31.2857 10.799C31.2857 10.9059 31.2644 11.0117 31.2228 11.1102C31.1813 11.2088 31.1205 11.298 31.044 11.3726C30.9675 11.4473 30.8769 11.5059 30.7774 11.545C30.6779 11.5841 30.5715 11.6029 30.4647 11.6003ZM30.4647 7.66262H17.7495C17.6426 7.66523 17.5363 7.64642 17.4368 7.60732C17.3373 7.56822 17.2467 7.50961 17.1702 7.43495C17.0936 7.36028 17.0328 7.27106 16.9913 7.17254C16.9498 7.07403 16.9284 6.9682 16.9284 6.8613C16.9284 6.75439 16.9498 6.64857 16.9913 6.55005C17.0328 6.45154 17.0936 6.36232 17.1702 6.28765C17.2467 6.21298 17.3373 6.15438 17.4368 6.11527C17.5363 6.07617 17.6426 6.05737 17.7495 6.05997H30.4647C30.5715 6.05737 30.6779 6.07617 30.7774 6.11527C30.8769 6.15438 30.9675 6.21298 31.044 6.28765C31.1205 6.36232 31.1813 6.45154 31.2228 6.55005C31.2644 6.64857 31.2857 6.75439 31.2857 6.8613C31.2857 6.9682 31.2644 7.07403 31.2228 7.17254C31.1813 7.27106 31.1205 7.36028 31.044 7.43495C30.9675 7.50961 30.8769 7.56822 30.7774 7.60732C30.6779 7.64642 30.5715 7.66523 30.4647 7.66262Z" fill="#AAA2C4"/>
</svg>
