<svg width="21" height="21" viewBox="0 0 21 21" fill="none" xmlns="http://www.w3.org/2000/svg">
<path d="M4.88499 20.5099H0.48999V5.85986H4.88499V20.5099ZM21 20.5099H16.605V12.6838C16.605 10.6446 15.8784 9.62931 14.4383 9.62931C13.297 9.62931 12.5733 10.1977 12.21 11.336C12.21 13.1849 12.21 20.5099 12.21 20.5099H7.81499C7.81499 20.5099 7.87359 7.32486 7.81499 5.85986H11.2841L11.5522 8.78986H11.643C12.544 7.32486 13.9841 6.33159 15.9589 6.33159C17.4606 6.33159 18.675 6.74912 19.6024 7.79806C20.5356 8.84846 21 10.2578 21 12.237V20.5099Z" fill="white"/>
<path d="M2.68738 4.395C3.94148 4.395 4.95813 3.41115 4.95813 2.1975C4.95813 0.983854 3.94148 0 2.68738 0C1.43328 0 0.416626 0.983854 0.416626 2.1975C0.416626 3.41115 1.43328 4.395 2.68738 4.395Z" fill="white"/>
</svg>
