<svg width="14" height="11" viewBox="0 0 14 11" fill="none" xmlns="http://www.w3.org/2000/svg">
<path d="M11.6667 0H2.33333C1.05 0 0 1.05 0 2.33333V8.16667C0 9.45 1.05 10.5 2.33333 10.5H11.6667C12.95 10.5 14 9.45 14 8.16667V2.33333C14 1.05 12.95 0 11.6667 0ZM12.6 3.38333L7.99167 6.475C7.7 6.65 7.35 6.76667 7 6.76667C6.65 6.76667 6.3 6.65 6.00833 6.475L1.4 3.38333C1.16667 3.20833 1.10833 2.85833 1.28333 2.56667C1.45833 2.33333 1.80833 2.275 2.1 2.45L6.70833 5.54167C6.88333 5.65833 7.175 5.65833 7.35 5.54167L11.9583 2.45C12.25 2.275 12.6 2.33333 12.775 2.625C12.8917 2.85833 12.8333 3.20833 12.6 3.38333Z" fill="#FEFEFE"/>
</svg>
