<svg width="26" height="26" viewBox="0 0 26 26" fill="none" xmlns="http://www.w3.org/2000/svg">
<path d="M13 5.03751C5.91501 5.03751 2.34001 9.58751 2.21001 9.78251C1.75501 10.3675 1.88501 11.1475 2.47001 11.6025C2.73969 11.8117 3.07995 11.9083 3.41932 11.8719C3.75868 11.8355 4.07076 11.6691 4.29001 11.4075C4.42001 11.2775 7.28001 7.70251 13 7.70251C18.72 7.70251 21.58 11.2775 21.71 11.4075C21.834 11.5658 21.9916 11.6946 22.1715 11.7845C22.3514 11.8745 22.549 11.9233 22.75 11.9275C23.01 11.9275 23.335 11.8625 23.53 11.6675C24.115 11.1475 24.245 10.3675 23.79 9.78251C23.66 9.58751 20.085 5.03751 13 5.03751Z" fill="black" fill-opacity="0.7"/>
<path d="M13 9.91251C8.905 9.91251 6.37 12.4475 6.24 12.5775C6.00267 12.8197 5.8705 13.1457 5.87221 13.4848C5.87392 13.8239 6.00938 14.1486 6.24915 14.3884C6.48891 14.6281 6.81361 14.7636 7.15269 14.7653C7.49177 14.767 7.81782 14.6348 8.06 14.3975C9.42989 13.2013 11.1815 12.533 13 12.5125C14.8185 12.533 16.5701 13.2013 17.94 14.3975C18.0574 14.5207 18.1986 14.6188 18.355 14.6858C18.5114 14.7528 18.6798 14.7873 18.85 14.7873C19.0202 14.7873 19.1886 14.7528 19.345 14.6858C19.5014 14.6188 19.6426 14.5207 19.76 14.3975C19.8832 14.2801 19.9812 14.1389 20.0483 13.9825C20.1153 13.8261 20.1498 13.6577 20.1498 13.4875C20.1498 13.3173 20.1153 13.1489 20.0483 12.9925C19.9812 12.8361 19.8832 12.6949 19.76 12.5775C19.63 12.4475 17.095 9.91251 13 9.91251Z" fill="black" fill-opacity="0.7"/>
<path d="M13 18.3625C12.6552 18.3625 12.3246 18.4995 12.0808 18.7433C11.837 18.9871 11.7 19.3177 11.7 19.6625C11.7 19.9196 11.7762 20.171 11.9191 20.3847C12.0619 20.5985 12.265 20.7652 12.5025 20.8635C12.7401 20.9619 13.0014 20.9877 13.2536 20.9375C13.5058 20.8874 13.7374 20.7636 13.9192 20.5817C14.101 20.3999 14.2249 20.1683 14.275 19.9161C14.3252 19.6639 14.2994 19.4026 14.201 19.165C14.1026 18.9275 13.936 18.7244 13.7222 18.5816C13.5085 18.4387 13.2571 18.3625 13 18.3625Z" fill="black" fill-opacity="0.7"/>
<path d="M16.445 15.8275C16.315 15.6325 14.95 14.4625 13 14.4625C11.115 14.4625 9.68501 15.6325 9.55501 15.7625C9.30308 15.9907 9.14894 16.3073 9.12472 16.6464C9.10051 16.9855 9.20807 17.3208 9.42501 17.5825C9.88001 18.1025 10.725 18.2325 11.245 17.7775C11.245 17.7775 12.09 17.1275 13 17.1275C13.975 17.1275 14.755 17.7775 14.755 17.7775C14.9974 17.9686 15.292 18.0819 15.6 18.1025C15.7861 18.1036 15.9701 18.0634 16.1387 17.9847C16.3073 17.906 16.4564 17.7908 16.575 17.6475C17.03 17.1275 17.03 16.2825 16.445 15.8275Z" fill="black" fill-opacity="0.7"/>
</svg>
