<svg width="70" height="68" viewBox="0 0 70 68" fill="none" xmlns="http://www.w3.org/2000/svg">
<path d="M11.2 53.8333C11.2 53.066 10.9229 52.4019 10.3687 51.8411C9.81458 51.2804 9.15833 51 8.4 51C7.6125 51 6.94896 51.2804 6.40937 51.8411C5.86979 52.4019 5.6 53.066 5.6 53.8333C5.6 54.6302 5.86979 55.3016 6.40937 55.8477C6.94896 56.3937 7.6125 56.6667 8.4 56.6667C9.15833 56.6667 9.81458 56.3937 10.3687 55.8477C10.9229 55.3016 11.2 54.6302 11.2 53.8333ZM18.2 31.1667V59.5C18.2 60.2674 17.9229 60.9314 17.3687 61.4922C16.8146 62.0529 16.1583 62.3333 15.4 62.3333H2.8C2.04167 62.3333 1.38542 62.0529 0.83125 61.4922C0.277083 60.9314 0 60.2674 0 59.5V31.1667C0 30.3993 0.277083 29.7352 0.83125 29.1745C1.38542 28.6137 2.04167 28.3333 2.8 28.3333H15.4C16.1583 28.3333 16.8146 28.6137 17.3687 29.1745C17.9229 29.7352 18.2 30.3993 18.2 31.1667ZM70 31.1667C70 33.7049 69.1979 35.9036 67.5938 37.763C68.0312 39.0616 68.25 40.1832 68.25 41.1276C68.3375 43.3707 67.7104 45.3924 66.3688 47.1927C66.8646 48.8455 66.8646 50.572 66.3688 52.3724C65.9313 54.0547 65.1437 55.4418 64.0062 56.5339C64.2687 59.8394 63.5542 62.5104 61.8625 64.5469C59.9958 66.7899 57.1229 67.941 53.2437 68H47.6C45.675 68 43.575 67.7713 41.3 67.3138C39.025 66.8563 37.2531 66.4284 35.9844 66.0299C34.7156 65.6315 32.9583 65.0486 30.7125 64.2812C27.125 63.0121 24.8208 62.3628 23.8 62.3333C23.0417 62.3038 22.3854 62.0161 21.8312 61.4701C21.2771 60.924 21 60.2674 21 59.5V31.1224C21 30.3845 21.2625 29.7426 21.7875 29.1966C22.3125 28.6506 22.9396 28.3481 23.6687 28.2891C24.3687 28.23 25.4771 27.3594 26.9937 25.6771C28.5104 23.9948 29.9833 22.2092 31.4125 20.3203C33.3958 17.7526 34.8687 15.9818 35.8312 15.0078C36.3563 14.4766 36.8083 13.7682 37.1875 12.8828C37.5667 11.9974 37.8219 11.2817 37.9531 10.7357C38.0844 10.1897 38.2812 9.29688 38.5438 8.05729C38.7479 6.90625 38.9302 6.00608 39.0906 5.35677C39.251 4.70747 39.5354 3.9401 39.9437 3.05469C40.3521 2.16927 40.8479 1.43142 41.4312 0.841146C41.9854 0.280382 42.6417 0 43.4 0C44.7417 0 45.9448 0.154948 47.0094 0.464844C48.074 0.77474 48.949 1.15842 49.6344 1.61589C50.3198 2.07335 50.9031 2.67101 51.3844 3.40885C51.8656 4.1467 52.2156 4.81076 52.4344 5.40104C52.6531 5.99132 52.8281 6.72917 52.9594 7.61458C53.0906 8.5 53.1635 9.16406 53.1781 9.60677C53.1927 10.0495 53.2 10.625 53.2 11.3333C53.2 12.4549 53.0615 13.5764 52.7844 14.6979C52.5073 15.8194 52.2302 16.7049 51.9531 17.3542C51.676 18.0035 51.275 18.8299 50.75 19.8333C50.6625 20.0104 50.5167 20.276 50.3125 20.6302C50.1083 20.9844 49.9479 21.309 49.8312 21.6042C49.7146 21.8993 49.5979 22.2535 49.4813 22.6667H61.6C63.875 22.6667 65.8438 23.5078 67.5062 25.1901C69.1687 26.8724 70 28.8646 70 31.1667Z" fill="#E2DFEB"/>
</svg>
