<svg width="24" height="16" viewBox="0 0 24 16" fill="none" xmlns="http://www.w3.org/2000/svg">
<path d="M23.4986 13.5016C23.2227 14.485 22.4095 15.2595 21.3768 15.5223C19.505 16 12 16 12 16C12 16 4.49499 16 2.62318 15.5223C1.59071 15.2595 0.777377 14.485 0.501423 13.5016C0 11.7191 0 7.99987 0 7.99987C0 7.99987 0 4.28076 0.501423 2.49844C0.777377 1.51496 1.59071 0.740314 2.62318 0.477502C4.49499 1.90735e-06 12 0 12 0C12 0 19.505 1.90735e-06 21.3768 0.477502C22.4095 0.740314 23.2227 1.51496 23.4986 2.49844C24 4.28076 24 7.99987 24 7.99987C24 7.99987 24 11.7191 23.4986 13.5016ZM9.59988 4.57125V11.4285L15.8352 7.99987L9.59988 4.57125Z" fill="#FDFDFD"/>
</svg>
